<svg width="80" height="80" viewBox="0 0 80 80" fill="none" xmlns="http://www.w3.org/2000/svg">
<g filter="url(#filter0_b_48_965)">
<path fill-rule="evenodd" clip-rule="evenodd" d="M10 36.6667C10 24.1676 10 17.918 13.183 13.5369C14.211 12.122 15.4553 10.8777 16.8702 9.84971C21.2513 6.66666 27.5009 6.66666 40 6.66666C52.4991 6.66666 58.7487 6.66666 63.1298 9.84971C64.5447 10.8777 65.789 12.122 66.817 13.5369C70 17.918 70 24.1676 70 36.6667V43.3333C70 46.1298 70 48.6134 69.9644 50.8333L69.7306 50.8333C66.8905 50.8331 65.1606 50.8329 63.6683 51.0693C55.4671 52.3683 49.0349 58.8004 47.736 67.0017C47.4996 68.4939 47.4998 70.2239 47.5 73.0639L47.5 73.2977C45.2801 73.3333 42.7965 73.3333 40 73.3333C27.5009 73.3333 21.2513 73.3333 16.8702 70.1503C15.4553 69.1223 14.211 67.878 13.183 66.4631C10 62.082 10 55.8324 10 43.3333V36.6667Z" fill="url(#paint0_linear_48_965)"/>
<path d="M64.4505 56.0077C65.4785 55.8449 66.7477 55.8338 69.7822 55.8333C69.4675 60.6321 68.6981 63.8739 66.817 66.4631C65.789 67.878 64.5447 69.1223 63.1298 70.1503C60.5406 72.0314 57.2988 72.8008 52.5 73.1155C52.5004 70.0811 52.5116 68.8118 52.6744 67.7838C53.6345 61.722 58.3887 56.9678 64.4505 56.0077Z" fill="url(#paint1_linear_48_965)"/>
<path d="M69.9643 51.3333L70.4564 51.3333L70.4643 50.8414C70.5 48.6174 70.5 46.1303 70.5 43.336V43.3333V36.6667V36.6348C70.5 30.4122 70.5 25.7029 70.0992 22.0037C69.6967 18.2887 68.8852 15.533 67.2215 13.243C66.1626 11.7857 64.881 10.504 63.4236 9.4452C61.1337 7.78143 58.3779 6.96994 54.663 6.56745C50.9637 6.16665 46.2545 6.16666 40.0319 6.16666H40H39.9681C33.7455 6.16666 29.0363 6.16665 25.337 6.56745C21.6221 6.96994 18.8663 7.78143 16.5764 9.4452C15.119 10.504 13.8374 11.7857 12.7785 13.243C11.1148 15.533 10.3033 18.2887 9.90079 22.0037C9.5 25.703 9.5 30.4122 9.5 36.6348V36.6667V43.3333V43.3652C9.5 49.5878 9.5 54.297 9.90079 57.9963C10.3033 61.7113 11.1148 64.467 12.7785 66.757C13.8374 68.2143 15.119 69.496 16.5764 70.5548C18.8663 72.2186 21.6221 73.03 25.337 73.4325C29.0363 73.8333 33.7455 73.8333 39.9681 73.8333H40H40.0018C42.7964 73.8333 45.2838 73.8333 47.508 73.7976L48 73.7897L48 73.2977L48 73.0639C47.9998 70.2079 48.0011 68.5242 48.2298 67.0799C49.4949 59.0926 55.7592 52.8282 63.7466 51.5631C65.1908 51.3344 66.8746 51.3331 69.7306 51.3333L69.9643 51.3333ZM70.2811 55.8661L70.3161 55.3333L69.7821 55.3333C66.7661 55.3338 65.4487 55.3434 64.3723 55.5139C58.0965 56.5079 53.1746 61.4299 52.1806 67.7056C52.0101 68.7821 52.0004 70.0994 52 73.1155L51.9999 73.6494L52.5327 73.6145C57.3592 73.298 60.7178 72.5207 63.4236 70.5548C64.881 69.496 66.1626 68.2143 67.2215 66.757C69.1873 64.0512 69.9646 60.6926 70.2811 55.8661Z" stroke="url(#paint2_linear_48_965)" stroke-linecap="round"/>
</g>
<g filter="url(#filter1_d_48_965)">
<path fill-rule="evenodd" clip-rule="evenodd" d="M26.6667 24.1667C25.286 24.1667 24.1667 25.2859 24.1667 26.6667C24.1667 28.0474 25.286 29.1667 26.6667 29.1667H36.6667C38.0474 29.1667 39.1667 28.0474 39.1667 26.6667C39.1667 25.2859 38.0474 24.1667 36.6667 24.1667H26.6667ZM26.6667 37.5C25.286 37.5 24.1667 38.6193 24.1667 40C24.1667 41.3807 25.286 42.5 26.6667 42.5H53.3334C54.7141 42.5 55.8334 41.3807 55.8334 40C55.8334 38.6193 54.7141 37.5 53.3334 37.5H26.6667ZM26.6667 50.8333C25.286 50.8333 24.1667 51.9526 24.1667 53.3333C24.1667 54.714 25.286 55.8333 26.6667 55.8333H36.6667C38.0474 55.8333 39.1667 54.714 39.1667 53.3333C39.1667 51.9526 38.0474 50.8333 36.6667 50.8333H26.6667Z" fill="url(#paint3_linear_48_965)"/>
</g>
<defs>
<filter id="filter0_b_48_965" x="-15" y="-18.3333" width="110" height="116.667" filterUnits="userSpaceOnUse" color-interpolation-filters="sRGB">
<feFlood flood-opacity="0" result="BackgroundImageFix"/>
<feGaussianBlur in="BackgroundImageFix" stdDeviation="12"/>
<feComposite in2="SourceAlpha" operator="in" result="effect1_backgroundBlur_48_965"/>
<feBlend mode="normal" in="SourceGraphic" in2="effect1_backgroundBlur_48_965" result="shape"/>
</filter>
<filter id="filter1_d_48_965" x="21.1667" y="21.1667" width="47.6667" height="47.6667" filterUnits="userSpaceOnUse" color-interpolation-filters="sRGB">
<feFlood flood-opacity="0" result="BackgroundImageFix"/>
<feColorMatrix in="SourceAlpha" type="matrix" values="0 0 0 0 0 0 0 0 0 0 0 0 0 0 0 0 0 0 127 0" result="hardAlpha"/>
<feOffset dx="5" dy="5"/>
<feGaussianBlur stdDeviation="4"/>
<feColorMatrix type="matrix" values="0 0 0 0 0.176471 0 0 0 0 0.556863 0 0 0 0 0.678431 0 0 0 0.5 0"/>
<feBlend mode="normal" in2="BackgroundImageFix" result="effect1_dropShadow_48_965"/>
<feBlend mode="normal" in="SourceGraphic" in2="effect1_dropShadow_48_965" result="shape"/>
</filter>
<linearGradient id="paint0_linear_48_965" x1="40" y1="6.66666" x2="40" y2="73.3333" gradientUnits="userSpaceOnUse">
<stop stop-color="#FFA6BD"/>
<stop offset="0.786458" stop-color="#FFB789" stop-opacity="0.723958"/>
<stop offset="1" stop-color="#FFE600" stop-opacity="0"/>
</linearGradient>
<linearGradient id="paint1_linear_48_965" x1="40" y1="6.66666" x2="40" y2="73.3333" gradientUnits="userSpaceOnUse">
<stop stop-color="#FFA6BD"/>
<stop offset="0.786458" stop-color="#FFB789" stop-opacity="0.723958"/>
<stop offset="1" stop-color="#FFE600" stop-opacity="0"/>
</linearGradient>
<linearGradient id="paint2_linear_48_965" x1="10" y1="6.66666" x2="76.3249" y2="66.2986" gradientUnits="userSpaceOnUse">
<stop stop-color="white" stop-opacity="0.25"/>
<stop offset="1" stop-color="white" stop-opacity="0"/>
</linearGradient>
<linearGradient id="paint3_linear_48_965" x1="40.2667" y1="62.5797" x2="83.9717" y2="19.738" gradientUnits="userSpaceOnUse">
<stop stop-color="white"/>
<stop offset="1" stop-color="white" stop-opacity="0.2"/>
</linearGradient>
</defs>
</svg>
