<svg width="80" height="80" viewBox="0 0 80 80" fill="none" xmlns="http://www.w3.org/2000/svg">
<g filter="url(#filter0_b_57_996)">
<circle cx="40" cy="40" r="38" fill="#C72752" fill-opacity="0.35"/>
<circle cx="40" cy="40" r="38.5" stroke="#C72752" stroke-opacity="0.35" stroke-linecap="round"/>
</g>
<g filter="url(#filter1_d_57_996)">
<path d="M13.8997 25.0919C13 28.3985 13 32.9602 13 40C13 49.9993 13 54.9989 15.5783 58.5038C16.4109 59.6357 17.4188 60.6312 18.5649 61.4536C22.1136 64 27.1757 64 37.3 64H42.7C52.8243 64 57.8864 64 61.4351 61.4536C62.5812 60.6312 63.5891 59.6357 64.4217 58.5038C67 54.9989 67 49.9993 67 40C67 32.9368 67 28.3682 66.0913 25.0589L60.4138 30.6663C56.0067 35.019 52.5529 38.4302 49.4959 40.7339C46.3667 43.0918 43.4164 44.4772 39.9996 44.4772C36.5829 44.4772 33.6325 43.0918 30.5034 40.7339C27.4463 38.4302 23.9925 35.019 19.5854 30.6662L14.3064 25.4524L13.8997 25.0919Z" fill="url(#paint0_linear_57_996)"/>
<path d="M15.7 21.3333L15.9939 21.5735L17.0929 22.5476L22.3396 27.7296C26.8801 32.214 30.1445 35.4321 32.9601 37.5538C35.7289 39.6403 37.8245 40.4772 39.9996 40.4772C42.1748 40.4772 44.2703 39.6403 47.0392 37.5538C49.8548 35.4321 53.1191 32.214 57.6596 27.7296L63.891 21.5752L64.2301 21.2421C63.3974 20.1102 62.5812 19.3688 61.4351 18.5464C57.8864 16 52.8243 16 42.7 16H37.3C27.1757 16 22.1136 16 18.5649 18.5464C17.4188 19.3688 16.5327 20.2014 15.7 21.3333Z" fill="url(#paint1_linear_57_996)"/>
</g>
<defs>
<filter id="filter0_b_57_996" x="-23" y="-23" width="126" height="126" filterUnits="userSpaceOnUse" color-interpolation-filters="sRGB">
<feFlood flood-opacity="0" result="BackgroundImageFix"/>
<feGaussianBlur in="BackgroundImageFix" stdDeviation="12"/>
<feComposite in2="SourceAlpha" operator="in" result="effect1_backgroundBlur_57_996"/>
<feBlend mode="normal" in="SourceGraphic" in2="effect1_backgroundBlur_57_996" result="shape"/>
</filter>
<filter id="filter1_d_57_996" x="10" y="13" width="70" height="64" filterUnits="userSpaceOnUse" color-interpolation-filters="sRGB">
<feFlood flood-opacity="0" result="BackgroundImageFix"/>
<feColorMatrix in="SourceAlpha" type="matrix" values="0 0 0 0 0 0 0 0 0 0 0 0 0 0 0 0 0 0 127 0" result="hardAlpha"/>
<feOffset dx="5" dy="5"/>
<feGaussianBlur stdDeviation="4"/>
<feColorMatrix type="matrix" values="0 0 0 0 0.176471 0 0 0 0 0.556863 0 0 0 0 0.678431 0 0 0 0.5 0"/>
<feBlend mode="normal" in2="BackgroundImageFix" result="effect1_dropShadow_57_996"/>
<feBlend mode="normal" in="SourceGraphic" in2="effect1_dropShadow_57_996" result="shape"/>
</filter>
<linearGradient id="paint0_linear_57_996" x1="40.4547" y1="74.2261" x2="106.4" y2="1.5034" gradientUnits="userSpaceOnUse">
<stop stop-color="white"/>
<stop offset="1" stop-color="white" stop-opacity="0.2"/>
</linearGradient>
<linearGradient id="paint1_linear_57_996" x1="40.4547" y1="74.2261" x2="106.4" y2="1.5034" gradientUnits="userSpaceOnUse">
<stop stop-color="white"/>
<stop offset="1" stop-color="white" stop-opacity="0.2"/>
</linearGradient>
</defs>
</svg>
